{
    "asset" : {
        "generator" : "Khronos glTF Blender I/O v3.2.40",
        "version" : "2.0"
    },
    "scene" : 0,
    "scenes" : [
        {
            "name" : "Scene",
            "nodes" : [
                0
            ]
        }
    ],
    "nodes" : [
        {
            "mesh" : 0,
            "name" : "B",
            "scale" : [
                0.009999999776482582,
                0.009999999776482582,
                0.009999999776482582
            ],
            "translation" : [
                0,
                0.007330624386668205,
                -1.656827449798584
            ]
        }
    ],
    "animations" : [
        {
            "channels" : [
                {
                    "sampler" : 0,
                    "target" : {
                        "node" : 0,
                        "path" : "rotation"
                    }
                }
            ],
            "name" : "BAction",
            "samplers" : [
                {
                    "input" : 12,
                    "interpolation" : "LINEAR",
                    "output" : 13
                }
            ]
        }
    ],
    "materials" : [
        {
            "doubleSided" : true,
            "name" : "Seriy",
            "pbrMetallicRoughness" : {
                "baseColorFactor" : [
                    0.43877550959587097,
                    0.43877550959587097,
                    0.43877550959587097,
                    1
                ],
                "metallicFactor" : 0,
                "roughnessFactor" : 0.2928932309150696
            }
        },
        {
            "doubleSided" : true,
            "name" : "Black",
            "pbrMetallicRoughness" : {
                "baseColorFactor" : [
                    0.0714285746216774,
                    0.0714285746216774,
                    0.0714285746216774,
                    1
                ],
                "metallicFactor" : 0,
                "roughnessFactor" : 0.2928932309150696
            }
        },
        {
            "doubleSided" : true,
            "name" : "BlackRed",
            "pbrMetallicRoughness" : {
                "baseColorFactor" : [
                    0.3877550959587097,
                    0.1632419377565384,
                    0.02367970161139965,
                    1
                ],
                "metallicFactor" : 0,
                "roughnessFactor" : 0.2928932309150696
            }
        }
    ],
    "meshes" : [
        {
            "name" : "Mesh.004",
            "primitives" : [
                {
                    "attributes" : {
                        "POSITION" : 0,
                        "NORMAL" : 1,
                        "TEXCOORD_0" : 2
                    },
                    "indices" : 3,
                    "material" : 0
                },
                {
                    "attributes" : {
                        "POSITION" : 4,
                        "NORMAL" : 5,
                        "TEXCOORD_0" : 6
                    },
                    "indices" : 7,
                    "material" : 1
                },
                {
                    "attributes" : {
                        "POSITION" : 8,
                        "NORMAL" : 9,
                        "TEXCOORD_0" : 10
                    },
                    "indices" : 11,
                    "material" : 2
                }
            ]
        }
    ],
    "accessors" : [
        {
            "bufferView" : 0,
            "componentType" : 5126,
            "count" : 604,
            "max" : [
                27.788097381591797,
                14.85312557220459,
                295.6827392578125
            ],
            "min" : [
                -27.788097381591797,
                -70.76705932617188,
                -54.27543258666992
            ],
            "type" : "VEC3"
        },
        {
            "bufferView" : 1,
            "componentType" : 5126,
            "count" : 604,
            "type" : "VEC3"
        },
        {
            "bufferView" : 2,
            "componentType" : 5126,
            "count" : 604,
            "type" : "VEC2"
        },
        {
            "bufferView" : 3,
            "componentType" : 5123,
            "count" : 1050,
            "type" : "SCALAR"
        },
        {
            "bufferView" : 4,
            "componentType" : 5126,
            "count" : 292,
            "max" : [
                6.0390305519104,
                22.94191551208496,
                294.3026428222656
            ],
            "min" : [
                -6.039031028747559,
                -79.6331787109375,
                -49.50041198730469
            ],
            "type" : "VEC3"
        },
        {
            "bufferView" : 5,
            "componentType" : 5126,
            "count" : 292,
            "type" : "VEC3"
        },
        {
            "bufferView" : 6,
            "componentType" : 5126,
            "count" : 292,
            "type" : "VEC2"
        },
        {
            "bufferView" : 7,
            "componentType" : 5123,
            "count" : 540,
            "type" : "SCALAR"
        },
        {
            "bufferView" : 8,
            "componentType" : 5126,
            "count" : 48,
            "max" : [
                8.716340065002441,
                -50.788841247558594,
                -24.440547943115234
            ],
            "min" : [
                -8.716361999511719,
                -132.64651489257812,
                -89.62686157226562
            ],
            "type" : "VEC3"
        },
        {
            "bufferView" : 9,
            "componentType" : 5126,
            "count" : 48,
            "type" : "VEC3"
        },
        {
            "bufferView" : 10,
            "componentType" : 5126,
            "count" : 48,
            "type" : "VEC2"
        },
        {
            "bufferView" : 11,
            "componentType" : 5123,
            "count" : 78,
            "type" : "SCALAR"
        },
        {
            "bufferView" : 12,
            "componentType" : 5126,
            "count" : 13,
            "max" : [
                0.48
            ],
            "min" : [
                0
            ],
            "type" : "SCALAR"
        },
        {
            "bufferView" : 13,
            "componentType" : 5126,
            "count" : 13,
            "type" : "VEC4"
        }
    ],
    "bufferViews" : [
        {
            "buffer" : 0,
            "byteLength" : 7248,
            "byteOffset" : 0
        },
        {
            "buffer" : 0,
            "byteLength" : 7248,
            "byteOffset" : 7248
        },
        {
            "buffer" : 0,
            "byteLength" : 4832,
            "byteOffset" : 14496
        },
        {
            "buffer" : 0,
            "byteLength" : 2100,
            "byteOffset" : 19328
        },
        {
            "buffer" : 0,
            "byteLength" : 3504,
            "byteOffset" : 21428
        },
        {
            "buffer" : 0,
            "byteLength" : 3504,
            "byteOffset" : 24932
        },
        {
            "buffer" : 0,
            "byteLength" : 2336,
            "byteOffset" : 28436
        },
        {
            "buffer" : 0,
            "byteLength" : 1080,
            "byteOffset" : 30772
        },
        {
            "buffer" : 0,
            "byteLength" : 576,
            "byteOffset" : 31852
        },
        {
            "buffer" : 0,
            "byteLength" : 576,
            "byteOffset" : 32428
        },
        {
            "buffer" : 0,
            "byteLength" : 384,
            "byteOffset" : 33004
        },
        {
            "buffer" : 0,
            "byteLength" : 156,
            "byteOffset" : 33388
        },
        {
            "buffer" : 0,
            "byteLength" : 52,
            "byteOffset" : 33544
        },
        {
            "buffer" : 0,
            "byteLength" : 208,
            "byteOffset" : 33596
        }
    ],
    "buffers" : [
        {
            "byteLength" : 33804,
            "uri" : "revolver_low_poly.bin"
        }
    ]
}
